<svg width="58" height="13" viewBox="0 0 58 13" fill="none" xmlns="http://www.w3.org/2000/svg">
<g clip-path="url(#clip0_2006_175)">
<path fill-rule="evenodd" clip-rule="evenodd" d="M37.4075 7.05845C37.4407 7.27845 37.4573 7.44768 37.507 7.61691C37.872 9.19075 39.0829 10.24 40.6587 10.3754C42.0521 10.4938 43.1468 9.95229 43.9596 8.7846C44.3577 8.22614 45.0047 8.1246 45.5189 8.58152C45.8175 8.83537 45.8506 9.17383 45.6184 9.49537C45.4857 9.6646 45.3696 9.83383 45.2369 10.02C44.7061 10.7646 44.0094 11.2723 43.1468 11.5769C41.7535 12.0677 40.3601 12.1354 38.9833 11.6108C37.1255 10.9169 36.0307 9.52922 35.7156 7.54922C35.5331 6.33076 35.6492 5.11229 36.1966 4.01229C36.9928 2.43845 38.2369 1.47383 39.962 1.18614C41.1066 0.999987 42.2345 1.11845 43.2961 1.64306C44.8056 2.37076 45.7179 3.60614 46.0663 5.24768C46.1658 5.7046 46.199 6.16152 46.2322 6.61845C46.2653 6.90614 46.1326 7.0246 45.8506 7.04152C45.7179 7.04152 45.6018 7.04152 45.4691 7.04152C42.898 7.04152 40.3269 7.04152 37.7724 7.04152C37.6563 7.05845 37.5734 7.05845 37.4075 7.05845ZM44.4241 5.33229C44.2085 3.85999 42.4668 2.57383 40.8577 2.67537C39.1824 2.77691 37.5236 4.07999 37.4573 5.33229C39.763 5.33229 42.1018 5.33229 44.4241 5.33229Z" fill="black"/>
<path fill-rule="evenodd" clip-rule="evenodd" d="M24.2369 7.00757C24.2535 7.15987 24.2701 7.26141 24.2867 7.37987C24.6018 9.12295 25.9952 10.3245 27.7203 10.3583C29.0307 10.3753 30.0426 9.83372 30.8056 8.75064C31.2037 8.17526 31.917 8.10757 32.4146 8.61526C32.6468 8.86911 32.6966 9.17372 32.4644 9.47834C32.3648 9.63064 32.2653 9.76603 32.1492 9.88449C31.5852 10.7306 30.8056 11.2722 29.8601 11.5937C28.4667 12.0676 27.0734 12.1014 25.7298 11.5599C23.8056 10.7983 22.7274 9.29218 22.4952 7.19372C22.3791 6.17834 22.4786 5.1968 22.8933 4.26603C23.7061 2.50603 25.0165 1.42295 26.9241 1.1691C27.9359 1.03372 28.9478 1.11833 29.8767 1.50756C31.5686 2.21833 32.5473 3.55526 32.9288 5.36603C32.9952 5.77218 33.0449 6.21218 33.0615 6.61834C33.0781 6.9568 33.0118 7.02449 32.6634 7.02449C32.0663 7.02449 31.4359 7.02449 30.8222 7.02449C28.7653 7.02449 26.7085 7.02449 24.6848 7.02449C24.5355 7.00757 24.4028 7.00757 24.2369 7.00757ZM31.2867 5.28141C31.071 3.82603 29.3791 2.59064 27.7203 2.62449C26.1113 2.65833 24.4359 3.97833 24.3032 5.28141C26.6255 5.28141 28.9312 5.28141 31.2867 5.28141Z" fill="black"/>
<path fill-rule="evenodd" clip-rule="evenodd" d="M53.0995 7.78605C53.2322 7.90451 53.2986 7.97221 53.3815 8.0399C54.2773 8.81836 55.173 9.59682 56.0522 10.3753C56.1019 10.4261 56.1849 10.4937 56.2346 10.5445C56.5664 10.883 56.5995 11.3737 56.2844 11.7122C55.9858 12.0507 55.5214 12.1014 55.173 11.8137C54.5427 11.2891 53.9455 10.7476 53.3318 10.223C52.4526 9.46144 51.5901 8.6999 50.7109 7.93836C50.6446 7.87067 50.545 7.80297 50.4123 7.70144C50.4123 7.88759 50.3957 8.00605 50.3957 8.12451C50.3957 10.2737 50.3957 8.66605 50.3957 10.8153C50.3957 10.9168 50.3957 11.0184 50.3957 11.1199C50.3626 11.5937 50.0142 11.9322 49.5498 11.8984C49.1019 11.8814 48.8033 11.543 48.7867 11.0691C48.7867 10.9676 48.7867 10.8661 48.7867 10.7645C48.7867 6.51682 48.7867 6.02605 48.7867 1.77836C48.7867 1.64297 48.7867 1.52451 48.7867 1.38913C48.7867 1.08451 48.8199 1.03374 49.1019 1.03374C49.4834 1.01682 49.8649 1.01682 50.2465 1.01682C51.1588 1.01682 52.1043 1.05067 53.0166 0.999898C54.5593 0.932205 56.2844 2.20144 56.4503 4.04605C56.5995 5.70451 55.4882 7.27836 53.8294 7.61682C53.6138 7.66759 53.3815 7.73528 53.0995 7.78605ZM50.2962 6.48298C50.3958 6.4999 50.4621 6.4999 50.5119 6.4999C51.2749 6.4999 52.0545 6.4999 52.8176 6.4999C53.0332 6.4999 53.2654 6.48298 53.4811 6.39836C54.1943 6.17836 54.7583 5.73836 54.9408 4.9599C55.2559 3.62297 54.2773 2.40451 52.9337 2.40451C52.1375 2.40451 51.3578 2.40451 50.545 2.40451C50.4455 2.40451 50.3626 2.42144 50.263 2.42144C50.2962 3.77528 50.2962 5.11221 50.2962 6.48298Z" fill="black"/>
<path fill-rule="evenodd" clip-rule="evenodd" d="M18.2654 7.0246C16.7393 7.0246 15.263 7.0246 13.7535 7.0246C13.7535 7.15998 13.7369 7.27845 13.7369 7.39691C13.7369 8.58152 13.7369 9.74921 13.7369 10.9338C13.7369 11.0861 13.7369 11.2384 13.7037 11.3569C13.5876 11.7123 13.2227 11.9323 12.8744 11.9154C12.4928 11.8815 12.1777 11.5769 12.1279 11.1877C12.1113 11.0861 12.1279 11.0015 12.1279 10.9C12.1279 6.68614 12.1113 6.17845 12.1113 1.98152C12.1113 1.81229 12.1279 1.64306 12.1777 1.49075C12.3104 1.13537 12.6753 0.932293 13.0568 0.983062C13.4052 1.03383 13.7037 1.33845 13.7369 1.71075C13.7535 1.82922 13.7369 1.93075 13.7369 2.04922C13.7369 4.21537 13.7535 2.67537 13.7535 4.84152C13.7535 4.97691 13.7701 5.09537 13.7701 5.21383C14.0521 5.28152 17.9668 5.28152 18.2654 5.21383C18.2654 5.11229 18.2819 5.01075 18.2819 4.89229C18.2819 3.9446 18.2819 2.97998 18.2819 2.03229C18.2819 1.93075 18.2819 1.84614 18.2819 1.7446C18.3151 1.32152 18.6303 0.999985 19.045 0.983062C19.4597 0.966139 19.8412 1.28768 19.8909 1.71075C19.9075 1.81229 19.8909 1.89691 19.8909 1.99845C19.8909 4.95998 19.8909 7.9046 19.8909 10.8661C19.8909 10.9677 19.8909 11.0523 19.8909 11.1538C19.8412 11.5769 19.4763 11.9154 19.0616 11.8984C18.6469 11.8815 18.3151 11.5431 18.2654 11.12C18.2654 11.0184 18.2654 10.9338 18.2654 10.8323C18.2654 9.69845 18.2654 8.53075 18.2654 7.39691C18.2654 7.29537 18.2654 7.17691 18.2654 7.0246Z" fill="black"/>
<path fill-rule="evenodd" clip-rule="evenodd" d="M5.06159 11.983C3.98339 11.9661 2.97154 11.7292 2.04263 11.1538C1.64453 10.9169 1.2796 10.6123 0.981022 10.2569C0.831733 10.0707 0.649268 9.88459 0.582918 9.64766C0.483392 9.34305 0.466804 9.00459 0.748794 8.73382C1.06396 8.4292 1.49524 8.31074 1.92652 8.59843C2.34121 8.90305 2.54026 9.29228 2.8886 9.64766C3.38623 10.1554 4.03315 10.4261 4.72984 10.5107C5.37676 10.5784 6.00709 10.5615 6.63742 10.3415C6.88623 10.24 7.15164 10.1215 7.36728 9.95228C7.76538 9.49536 7.8815 8.85228 7.40045 8.41228C7.16823 8.2092 6.86965 8.0569 6.57107 7.92151C5.84121 7.59997 5.07818 7.37997 4.31515 7.1769C3.68481 7.02459 3.08766 6.82151 2.45733 6.63536C2.2251 6.56766 1.99287 6.43228 1.77723 6.31382C1.19666 5.99228 0.864908 5.48459 0.765382 4.84151C0.582918 3.50459 1.06396 2.30305 2.20851 1.71074C3.99998 0.813819 5.8578 0.898434 7.64927 1.93074C7.98102 2.1169 8.29619 2.40459 8.57818 2.65843C8.79382 2.84459 8.95969 3.11536 9.04263 3.40305C9.12557 3.75843 8.95969 4.13074 8.52842 4.23228C8.16349 4.3169 7.83173 4.19843 7.56633 3.91074C7.51657 3.85997 7.4668 3.79228 7.43363 3.74151C7.01894 3.09843 6.40519 2.74305 5.67533 2.60766C4.94548 2.47228 4.21562 2.4892 3.51894 2.7769C3.27012 2.87843 3.00472 3.01382 2.80567 3.19997C2.50709 3.60613 2.39097 4.14767 2.78908 4.65536C3.10424 4.95997 3.46917 5.1292 3.86728 5.21382C4.74642 5.43382 5.64216 5.67074 6.52131 5.89074C7.08529 6.04305 7.63268 6.2292 8.1469 6.53382C8.81041 6.8892 9.29145 7.41382 9.45732 8.17536C9.65638 9.10613 9.45732 9.98613 8.74405 10.663C7.93126 11.4077 7.00235 11.8138 5.92415 11.9323C5.62557 11.9661 5.32699 11.9661 5.06159 11.983Z" fill="black"/>
</g>
<defs>
<clipPath id="clip0_2006_175">
<rect width="57" height="13" fill="white" transform="translate(0.5)"/>
</clipPath>
</defs>
</svg>
