<svg width="1920" height="404" viewBox="0 0 1920 404" fill="none" xmlns="http://www.w3.org/2000/svg">
<path d="M909.378 401.241H919.77C919.77 401.747 920.023 402 920.53 402H922.051C922.558 402 922.811 401.747 922.811 401.241V399.724H933.456C944.101 399.724 952.466 391.125 952.466 380.755V368.615L954.24 359.51V349.14C954.747 349.14 955 348.887 955 348.381V346.864C955 346.358 954.747 346.105 954.24 346.105H952.212V335.482C952.212 324.86 943.595 316.514 933.203 316.514H921.037L911.913 314.743H901.521C901.521 314.237 901.267 313.984 900.76 313.984H899.24C898.733 313.984 898.479 314.237 898.479 314.743V316.767H751.221V314.996C751.221 314.49 750.968 314.237 750.461 314.237H748.94C748.433 314.237 748.18 314.49 748.18 314.996H738.295L729.171 316.767H717.005C712.949 316.767 709.654 313.479 709.654 309.432V301.339H711.682C712.189 301.339 712.442 301.086 712.442 300.58V299.062C712.442 298.556 712.189 298.304 711.682 298.304V287.934L709.908 278.829V266.689C709.908 262.642 713.203 259.354 717.258 259.354H726.889V261.63C726.889 262.136 727.143 262.389 727.65 262.389H729.171C729.678 262.389 729.931 262.136 729.931 261.63H740.323L749.447 259.86H796.336C806.982 259.86 815.346 251.261 815.346 240.891V229.257L816.866 220.152V209.782C817.373 209.782 817.627 209.529 817.627 209.023V207.759C817.627 207.253 817.373 207 816.866 207H801.152C800.645 207 800.392 207.253 800.392 207.759V209.276C800.392 209.782 800.645 210.035 801.152 210.035V220.405L802.926 229.51V241.65C802.926 245.696 799.631 248.984 795.576 248.984H749.194L740.069 247.214H729.677C729.677 246.708 729.424 246.455 728.917 246.455H727.396C726.889 246.455 726.636 246.708 726.636 247.214V248.732H717.005C706.36 248.732 697.995 257.331 697.995 267.7V279.84L696.221 288.946V299.315C695.714 299.315 695.461 299.568 695.461 300.074V301.591C695.461 302.097 695.714 302.35 696.221 302.35H697.995V310.444C697.995 321.066 706.613 329.412 717.005 329.412H729.171L738.295 331.183H748.687C748.687 331.689 748.94 331.942 749.447 331.942H750.968C751.475 331.942 751.728 331.689 751.728 331.183V329.16H898.986V330.93C898.986 331.436 899.24 331.689 899.747 331.689H901.267C901.774 331.689 902.028 331.436 902.028 330.93H912.419L921.544 329.16H933.71C937.765 329.16 941.06 332.447 941.06 336.494V347.117H939.539C939.032 347.117 938.779 347.37 938.779 347.876V349.393C938.779 349.899 939.032 350.152 939.539 350.152V360.521L941.313 369.626V381.767C941.313 385.813 938.018 389.101 933.963 389.101H923.318V387.078C923.318 386.572 923.065 386.319 922.558 386.319H921.037C920.53 386.319 920.277 386.572 920.277 387.078H909.885L900.76 388.848H567.433V387.078C567.433 386.572 567.18 386.319 566.673 386.319H565.152C564.645 386.319 564.392 386.572 564.392 387.078H554L544.876 388.848H517.249L508.124 387.078H496.972C496.972 386.572 496.719 386.319 496.212 386.319H494.945C494.438 386.319 494.184 386.572 494.184 387.078V402.759C494.184 403.265 494.438 403.518 494.945 403.518H496.465C496.972 403.518 497.226 403.265 497.226 402.759H508.378L517.502 400.988H544.876L554 402.759H564.392C564.392 403.265 564.645 403.518 565.152 403.518H566.673C567.18 403.518 567.433 403.265 567.433 402.759V400.988H900.76L909.378 401.241Z" fill="#F3EBE0"/>
<path d="M309.622 2.75873H299.23C299.23 2.25288 298.977 1.99998 298.47 1.99998H296.949C296.442 1.99998 296.189 2.25288 296.189 2.75873V4.27625H285.544C274.899 4.27625 266.535 12.8755 266.535 23.2451V35.3852L264.76 44.4903V54.8599C264.253 54.8599 264 55.1128 264 55.6187V57.1362C264 57.642 264.253 57.8949 264.76 57.8949H266.788V68.5175C266.788 79.1401 275.406 87.4864 285.797 87.4864H297.963L307.088 89.2568H317.479C317.479 89.7626 317.733 90.0156 318.24 90.0156H319.76C320.267 90.0156 320.521 89.7626 320.521 89.2568V87.2334H467.779V89.0039C467.779 89.5097 468.032 89.7626 468.539 89.7626H470.06C470.567 89.7626 470.82 89.5097 470.82 89.0039H480.705L489.83 87.2334H501.995C506.051 87.2334 509.346 90.5214 509.346 94.5681V102.661H507.318C506.811 102.661 506.558 102.914 506.558 103.42V104.938C506.558 105.444 506.811 105.696 507.318 105.696V116.066L509.092 125.171V137.311C509.092 141.358 505.797 144.646 501.742 144.646H492.111V142.37C492.111 141.864 491.857 141.611 491.35 141.611H489.83C489.323 141.611 489.069 141.864 489.069 142.37H478.677L469.553 144.14H422.664C412.018 144.14 403.654 152.739 403.654 163.109V174.743L402.134 183.848V194.218C401.627 194.218 401.373 194.471 401.373 194.977V196.241C401.373 196.747 401.627 197 402.134 197H417.848C418.355 197 418.608 196.747 418.608 196.241V194.724C418.608 194.218 418.355 193.965 417.848 193.965V183.595L416.074 174.49V162.35C416.074 158.304 419.369 155.016 423.424 155.016H469.806L478.931 156.786H489.323C489.323 157.292 489.576 157.545 490.083 157.545H491.604C492.111 157.545 492.364 157.292 492.364 156.786V155.268H501.995C512.641 155.268 521.005 146.669 521.005 136.3V124.16L522.779 115.054V104.685C523.286 104.685 523.539 104.432 523.539 103.926V102.409C523.539 101.903 523.286 101.65 522.779 101.65H521.005V93.5564C521.005 82.9338 512.387 74.5875 501.995 74.5875H489.83L480.705 72.8171H470.313C470.313 72.3113 470.06 72.0583 469.553 72.0583H468.032C467.525 72.0583 467.272 72.3113 467.272 72.8171V74.8405H320.014V73.07C320.014 72.5642 319.76 72.3113 319.254 72.3113H317.733C317.226 72.3113 316.972 72.5642 316.972 73.07H306.581L297.456 74.8405H285.29C281.235 74.8405 277.94 71.5525 277.94 67.5058V56.8833H279.461C279.968 56.8833 280.221 56.6303 280.221 56.1245V54.607C280.221 54.1012 279.968 53.8482 279.461 53.8482V43.4786L277.687 34.3735V22.2334C277.687 18.1868 280.982 14.8988 285.037 14.8988H295.682V16.9222C295.682 17.428 295.936 17.6809 296.442 17.6809H297.963C298.47 17.6809 298.724 17.428 298.724 16.9222H309.115L318.24 15.1517H651.567V16.9222C651.567 17.428 651.82 17.6809 652.327 17.6809H653.848C654.355 17.6809 654.608 17.428 654.608 16.9222H665L674.125 15.1517H701.751L710.876 16.9222H722.028C722.028 17.428 722.281 17.6809 722.788 17.6809H724.055C724.562 17.6809 724.816 17.428 724.816 16.9222V1.24123C724.816 0.735382 724.562 0.482483 724.055 0.482483H722.535C722.028 0.482483 721.774 0.735382 721.774 1.24123H710.622L701.498 3.01166H674.125L665 1.24123H654.608C654.608 0.735382 654.355 0.482483 653.848 0.482483H652.327C651.82 0.482483 651.567 0.735382 651.567 1.24123V3.01166H318.24L309.622 2.75873Z" fill="#F3EBE0"/>
<path d="M1149.62 2.75873H1139.23C1139.23 2.25288 1138.98 1.99998 1138.47 1.99998H1136.95C1136.44 1.99998 1136.19 2.25288 1136.19 2.75873V4.27625H1125.54C1114.9 4.27625 1106.53 12.8755 1106.53 23.2451V35.3852L1104.76 44.4903V54.8599C1104.25 54.8599 1104 55.1128 1104 55.6187V57.1362C1104 57.642 1104.25 57.8949 1104.76 57.8949H1106.79V68.5175C1106.79 79.1401 1115.41 87.4864 1125.8 87.4864H1137.96L1147.09 89.2568H1157.48C1157.48 89.7626 1157.73 90.0156 1158.24 90.0156H1159.76C1160.27 90.0156 1160.52 89.7626 1160.52 89.2568V87.2334H1307.78V89.0039C1307.78 89.5097 1308.03 89.7626 1308.54 89.7626H1310.06C1310.57 89.7626 1310.82 89.5097 1310.82 89.0039H1320.7L1329.83 87.2334H1342C1346.05 87.2334 1349.35 90.5214 1349.35 94.5681V102.661H1347.32C1346.81 102.661 1346.56 102.914 1346.56 103.42V104.938C1346.56 105.444 1346.81 105.696 1347.32 105.696V116.066L1349.09 125.171V137.311C1349.09 141.358 1345.8 144.646 1341.74 144.646H1332.11V142.37C1332.11 141.864 1331.86 141.611 1331.35 141.611H1329.83C1329.32 141.611 1329.07 141.864 1329.07 142.37H1318.68L1309.55 144.14H1262.66C1252.02 144.14 1243.65 152.739 1243.65 163.109V174.743L1242.13 183.848V194.218C1241.63 194.218 1241.37 194.471 1241.37 194.977V196.241C1241.37 196.747 1241.63 197 1242.13 197H1257.85C1258.35 197 1258.61 196.747 1258.61 196.241V194.724C1258.61 194.218 1258.35 193.965 1257.85 193.965V183.595L1256.07 174.49V162.35C1256.07 158.304 1259.37 155.016 1263.42 155.016H1309.81L1318.93 156.786H1329.32C1329.32 157.292 1329.58 157.545 1330.08 157.545H1331.6C1332.11 157.545 1332.36 157.292 1332.36 156.786V155.268H1342C1352.64 155.268 1361 146.669 1361 136.3V124.16L1362.78 115.054V104.685C1363.29 104.685 1363.54 104.432 1363.54 103.926V102.409C1363.54 101.903 1363.29 101.65 1362.78 101.65H1361V93.5564C1361 82.9338 1352.39 74.5875 1342 74.5875H1329.83L1320.7 72.8171H1310.31C1310.31 72.3113 1310.06 72.0583 1309.55 72.0583H1308.03C1307.53 72.0583 1307.27 72.3113 1307.27 72.8171V74.8405H1160.01V73.07C1160.01 72.5642 1159.76 72.3113 1159.25 72.3113H1157.73C1157.23 72.3113 1156.97 72.5642 1156.97 73.07H1146.58L1137.46 74.8405H1125.29C1121.23 74.8405 1117.94 71.5525 1117.94 67.5058V56.8833H1119.46C1119.97 56.8833 1120.22 56.6303 1120.22 56.1245V54.607C1120.22 54.1012 1119.97 53.8482 1119.46 53.8482V43.4786L1117.69 34.3735V22.2334C1117.69 18.1868 1120.98 14.8988 1125.04 14.8988H1135.68V16.9222C1135.68 17.428 1135.94 17.6809 1136.44 17.6809H1137.96C1138.47 17.6809 1138.72 17.428 1138.72 16.9222H1149.12L1158.24 15.1517H1491.57V16.9222C1491.57 17.428 1491.82 17.6809 1492.33 17.6809H1493.85C1494.35 17.6809 1494.61 17.428 1494.61 16.9222H1505L1514.12 15.1517H1541.75L1550.88 16.9222H1562.03C1562.03 17.428 1562.28 17.6809 1562.79 17.6809H1564.06C1564.56 17.6809 1564.82 17.428 1564.82 16.9222V1.24123C1564.82 0.735382 1564.56 0.482483 1564.06 0.482483H1562.53C1562.03 0.482483 1561.77 0.735382 1561.77 1.24123H1550.62L1541.5 3.01166H1514.12L1505 1.24123H1494.61C1494.61 0.735382 1494.35 0.482483 1493.85 0.482483H1492.33C1491.82 0.482483 1491.57 0.735382 1491.57 1.24123V3.01166H1158.24L1149.62 2.75873Z" fill="#F3EBE0"/>
<g clip-path="url(#clip0_2008_515)">
<path d="M290.343 196.368H123V206.829H290.343V196.368Z" fill="#F3EBE0"/>
<path d="M294.003 194.592H304.78V208.408H294.003L285.87 206.632V196.368L294.003 194.592Z" fill="#F3EBE0"/>
<path d="M294.003 194.592V208.408L285.87 206.632V196.368L294.003 194.592Z" fill="#F3EBE0"/>
<path d="M303.967 194C303.56 194 303.357 194.197 303.357 194.592V208.211C303.357 208.605 303.56 208.803 303.967 208.803H305.187C305.593 208.803 305.797 208.605 305.797 208.211V194.592C306 194.197 305.593 194 305.39 194H303.967Z" fill="#F3EBE0"/>
</g>
<g clip-path="url(#clip1_2008_515)">
<path d="M715.343 196.368H548V206.829H715.343V196.368Z" fill="#F3EBE0"/>
<path d="M719.003 194.592H729.78V208.408H719.003L710.87 206.632V196.368L719.003 194.592Z" fill="#F3EBE0"/>
<path d="M719.003 194.592V208.408L710.87 206.632V196.368L719.003 194.592Z" fill="#F3EBE0"/>
<path d="M728.967 194C728.56 194 728.357 194.197 728.357 194.592V208.211C728.357 208.605 728.56 208.803 728.967 208.803H730.187C730.593 208.803 730.797 208.605 730.797 208.211V194.592C731 194.197 730.593 194 730.39 194H728.967Z" fill="#F3EBE0"/>
</g>
<g clip-path="url(#clip2_2008_515)">
<path d="M1143.34 196.368H976V206.829H1143.34V196.368Z" fill="#F3EBE0"/>
<path d="M1147 194.592H1157.78V208.408H1147L1138.87 206.632V196.368L1147 194.592Z" fill="#F3EBE0"/>
<path d="M1147 194.592V208.408L1138.87 206.632V196.368L1147 194.592Z" fill="#F3EBE0"/>
<path d="M1156.97 194C1156.56 194 1156.36 194.197 1156.36 194.592V208.211C1156.36 208.605 1156.56 208.803 1156.97 208.803H1158.19C1158.59 208.803 1158.8 208.605 1158.8 208.211V194.592C1159 194.197 1158.59 194 1158.39 194H1156.97Z" fill="#F3EBE0"/>
</g>
<g clip-path="url(#clip3_2008_515)">
<path d="M1569.34 196.368H1402V206.829H1569.34V196.368Z" fill="#F3EBE0"/>
<path d="M1573 194.592H1583.78V208.408H1573L1564.87 206.632V196.368L1573 194.592Z" fill="#F3EBE0"/>
<path d="M1573 194.592V208.408L1564.87 206.632V196.368L1573 194.592Z" fill="#F3EBE0"/>
<path d="M1582.97 194C1582.56 194 1582.36 194.197 1582.36 194.592V208.211C1582.36 208.605 1582.56 208.803 1582.97 208.803H1584.19C1584.59 208.803 1584.8 208.605 1584.8 208.211V194.592C1585 194.197 1584.59 194 1584.39 194H1582.97Z" fill="#F3EBE0"/>
</g>
<g clip-path="url(#clip4_2008_515)">
<path d="M109.343 196.368H-58V206.829H109.343V196.368Z" fill="#F3EBE0"/>
<path d="M113.003 194.592H123.78V208.408H113.003L104.87 206.632V196.368L113.003 194.592Z" fill="#F3EBE0"/>
<path d="M113.003 194.592V208.408L104.87 206.632V196.368L113.003 194.592Z" fill="#F3EBE0"/>
<path d="M122.967 194C122.56 194 122.357 194.197 122.357 194.592V208.211C122.357 208.605 122.56 208.803 122.967 208.803H124.187C124.593 208.803 124.797 208.605 124.797 208.211V194.592C125 194.197 124.593 194 124.39 194H122.967Z" fill="#F3EBE0"/>
</g>
<g clip-path="url(#clip5_2008_515)">
<path d="M582.343 196.368H415V206.829H582.343V196.368Z" fill="#F3EBE0"/>
<path d="M586.003 194.592H596.78V208.408H586.003L577.87 206.632V196.368L586.003 194.592Z" fill="#F3EBE0"/>
<path d="M586.003 194.592V208.408L577.87 206.632V196.368L586.003 194.592Z" fill="#F3EBE0"/>
<path d="M595.967 194C595.56 194 595.357 194.197 595.357 194.592V208.211C595.357 208.605 595.56 208.803 595.967 208.803H597.187C597.593 208.803 597.797 208.605 597.797 208.211V194.592C598 194.197 597.593 194 597.39 194H595.967Z" fill="#F3EBE0"/>
</g>
<g clip-path="url(#clip6_2008_515)">
<path d="M1010.34 196.368H843V206.829H1010.34V196.368Z" fill="#F3EBE0"/>
<path d="M1014 194.592H1024.78V208.408H1014L1005.87 206.632V196.368L1014 194.592Z" fill="#F3EBE0"/>
<path d="M1014 194.592V208.408L1005.87 206.632V196.368L1014 194.592Z" fill="#F3EBE0"/>
<path d="M1023.97 194C1023.56 194 1023.36 194.197 1023.36 194.592V208.211C1023.36 208.605 1023.56 208.803 1023.97 208.803H1025.19C1025.59 208.803 1025.8 208.605 1025.8 208.211V194.592C1026 194.197 1025.59 194 1025.39 194H1023.97Z" fill="#F3EBE0"/>
</g>
<g clip-path="url(#clip7_2008_515)">
<path d="M1436.34 196.368H1269V206.829H1436.34V196.368Z" fill="#F3EBE0"/>
<path d="M1440 194.592H1450.78V208.408H1440L1431.87 206.632V196.368L1440 194.592Z" fill="#F3EBE0"/>
<path d="M1440 194.592V208.408L1431.87 206.632V196.368L1440 194.592Z" fill="#F3EBE0"/>
<path d="M1449.97 194C1449.56 194 1449.36 194.197 1449.36 194.592V208.211C1449.36 208.605 1449.56 208.803 1449.97 208.803H1451.19C1451.59 208.803 1451.8 208.605 1451.8 208.211V194.592C1452 194.197 1451.59 194 1451.39 194H1449.97Z" fill="#F3EBE0"/>
</g>
<g clip-path="url(#clip8_2008_515)">
<path d="M1919.34 196.368H1752V206.829H1919.34V196.368Z" fill="#F3EBE0"/>
<path d="M1923 194.592H1933.78V208.408H1923L1914.87 206.632V196.368L1923 194.592Z" fill="#F3EBE0"/>
<path d="M1923 194.592V208.408L1914.87 206.632V196.368L1923 194.592Z" fill="#F3EBE0"/>
</g>
<g clip-path="url(#clip9_2008_515)">
<path d="M457.343 196.368H290V206.829H457.343V196.368Z" fill="#F3EBE0"/>
<path d="M461.003 194.592H471.78V208.408H461.003L452.87 206.632V196.368L461.003 194.592Z" fill="#F3EBE0"/>
<path d="M461.003 194.592V208.408L452.87 206.632V196.368L461.003 194.592Z" fill="#F3EBE0"/>
<path d="M470.967 194C470.56 194 470.357 194.197 470.357 194.592V208.211C470.357 208.605 470.56 208.803 470.967 208.803H472.187C472.593 208.803 472.797 208.605 472.797 208.211V194.592C473 194.197 472.593 194 472.39 194H470.967Z" fill="#F3EBE0"/>
</g>
<g clip-path="url(#clip10_2008_515)">
<path d="M885.343 196.368H718V206.829H885.343V196.368Z" fill="#F3EBE0"/>
<path d="M889.003 194.592H899.78V208.408H889.003L880.87 206.632V196.368L889.003 194.592Z" fill="#F3EBE0"/>
<path d="M889.003 194.592V208.408L880.87 206.632V196.368L889.003 194.592Z" fill="#F3EBE0"/>
<path d="M898.967 194C898.56 194 898.357 194.197 898.357 194.592V208.211C898.357 208.605 898.56 208.803 898.967 208.803H900.187C900.593 208.803 900.797 208.605 900.797 208.211V194.592C901 194.197 900.593 194 900.39 194H898.967Z" fill="#F3EBE0"/>
</g>
<g clip-path="url(#clip11_2008_515)">
<path d="M1311.34 196.368H1144V206.829H1311.34V196.368Z" fill="#F3EBE0"/>
<path d="M1315 194.592H1325.78V208.408H1315L1306.87 206.632V196.368L1315 194.592Z" fill="#F3EBE0"/>
<path d="M1315 194.592V208.408L1306.87 206.632V196.368L1315 194.592Z" fill="#F3EBE0"/>
<path d="M1324.97 194C1324.56 194 1324.36 194.197 1324.36 194.592V208.211C1324.36 208.605 1324.56 208.803 1324.97 208.803H1326.19C1326.59 208.803 1326.8 208.605 1326.8 208.211V194.592C1327 194.197 1326.59 194 1326.39 194H1324.97Z" fill="#F3EBE0"/>
</g>
<g clip-path="url(#clip12_2008_515)">
<path d="M1748.34 196.368H1581V206.829H1748.34V196.368Z" fill="#F3EBE0"/>
<path d="M1752 194.592H1762.78V208.408H1752L1743.87 206.632V196.368L1752 194.592Z" fill="#F3EBE0"/>
<path d="M1752 194.592V208.408L1743.87 206.632V196.368L1752 194.592Z" fill="#F3EBE0"/>
<path d="M1761.97 194C1761.56 194 1761.36 194.197 1761.36 194.592V208.211C1761.36 208.605 1761.56 208.803 1761.97 208.803H1763.19C1763.59 208.803 1763.8 208.605 1763.8 208.211V194.592C1764 194.197 1763.59 194 1763.39 194H1761.97Z" fill="#F3EBE0"/>
</g>
<g clip-path="url(#clip13_2008_515)">
<path d="M249.769 157.603V168.314H239.018V157.401C239.018 153.763 236.178 150.934 232.527 150.934H215.082V140.425H232.527C242.06 140.425 249.769 148.104 249.769 157.603Z" fill="#F3EBE0"/>
<path d="M238.815 183.066H249.566V195.798H238.815V183.066Z" fill="#F3EBE0"/>
<path d="M251.391 179.429V168.92H237.192V179.429L239.018 187.714H249.566L251.391 179.429Z" fill="#F3EBE0"/>
<path d="M251.391 179.428H237.192L239.018 187.714H249.566L251.391 179.428Z" fill="#F3EBE0"/>
<path d="M252 169.526C252 169.93 251.797 170.334 251.391 170.334H237.395C236.989 170.334 236.786 170.132 236.786 169.728V168.314C236.786 167.909 236.989 167.707 237.395 167.707H251.391C251.797 167.707 252 167.909 252 168.314V169.526Z" fill="#F3EBE0"/>
<path d="M206.765 138.606H196.217V152.753H206.765L215.082 150.732V140.223L206.765 138.606Z" fill="#F3EBE0"/>
<path d="M206.765 138.606V152.753L215.082 150.934V140.425L206.765 138.606Z" fill="#F3EBE0"/>
<path d="M196.826 138C197.231 138 197.434 138.202 197.434 138.606V152.551C197.434 152.955 197.231 153.157 196.826 153.157H195.609C195.203 153.157 195 152.955 195 152.551V138.606C195 138.202 195.203 138 195.609 138H196.826Z" fill="#F3EBE0"/>
</g>
<g clip-path="url(#clip14_2008_515)">
<path d="M1102.77 157.603V168.314H1092.02V157.401C1092.02 153.763 1089.18 150.934 1085.53 150.934H1068.08V140.425H1085.53C1095.06 140.425 1102.77 148.104 1102.77 157.603Z" fill="#F3EBE0"/>
<path d="M1091.82 183.066H1102.57V195.798H1091.82V183.066Z" fill="#F3EBE0"/>
<path d="M1104.39 179.429V168.92H1090.19V179.429L1092.02 187.714H1102.57L1104.39 179.429Z" fill="#F3EBE0"/>
<path d="M1104.39 179.428H1090.19L1092.02 187.714H1102.57L1104.39 179.428Z" fill="#F3EBE0"/>
<path d="M1105 169.526C1105 169.93 1104.8 170.334 1104.39 170.334H1090.4C1089.99 170.334 1089.79 170.132 1089.79 169.728V168.314C1089.79 167.909 1089.99 167.707 1090.4 167.707H1104.39C1104.8 167.707 1105 167.909 1105 168.314V169.526Z" fill="#F3EBE0"/>
<path d="M1059.77 138.606H1049.22V152.753H1059.77L1068.08 150.732V140.223L1059.77 138.606Z" fill="#F3EBE0"/>
<path d="M1059.77 138.606V152.753L1068.08 150.934V140.425L1059.77 138.606Z" fill="#F3EBE0"/>
<path d="M1049.83 138C1050.23 138 1050.43 138.202 1050.43 138.606V152.551C1050.43 152.955 1050.23 153.157 1049.83 153.157H1048.61C1048.2 153.157 1048 152.955 1048 152.551V138.606C1048 138.202 1048.2 138 1048.61 138H1049.83Z" fill="#F3EBE0"/>
</g>
<path d="M1520.62 401.241H1510.23C1510.23 401.747 1509.98 402 1509.47 402H1507.95C1507.44 402 1507.19 401.747 1507.19 401.241V399.724H1496.54C1485.9 399.724 1477.53 391.125 1477.53 380.755V368.615L1475.76 359.51V349.14C1475.25 349.14 1475 348.887 1475 348.381V346.864C1475 346.358 1475.25 346.105 1475.76 346.105H1477.79V335.482C1477.79 324.86 1486.41 316.514 1496.8 316.514H1508.96L1518.09 314.743H1528.48C1528.48 314.237 1528.73 313.984 1529.24 313.984H1530.76C1531.27 313.984 1531.52 314.237 1531.52 314.743V316.767H1678.78V314.996C1678.78 314.49 1679.03 314.237 1679.54 314.237H1681.06C1681.57 314.237 1681.82 314.49 1681.82 314.996H1691.7L1700.83 316.767H1713C1717.05 316.767 1720.35 313.479 1720.35 309.432V301.339H1718.32C1717.81 301.339 1717.56 301.086 1717.56 300.58V299.062C1717.56 298.556 1717.81 298.304 1718.32 298.304V287.934L1720.09 278.829V266.689C1720.09 262.642 1716.8 259.354 1712.74 259.354H1703.11V261.63C1703.11 262.136 1702.86 262.389 1702.35 262.389H1700.83C1700.32 262.389 1700.07 262.136 1700.07 261.63H1689.68L1680.55 259.86H1633.66C1623.02 259.86 1614.65 251.261 1614.65 240.891V229.257L1613.13 220.152V209.782C1612.63 209.782 1612.37 209.529 1612.37 209.023V207.759C1612.37 207.253 1612.63 207 1613.13 207H1628.85C1629.35 207 1629.61 207.253 1629.61 207.759V209.276C1629.61 209.782 1629.35 210.035 1628.85 210.035V220.405L1627.07 229.51V241.65C1627.07 245.696 1630.37 248.984 1634.42 248.984H1680.81L1689.93 247.214H1700.32C1700.32 246.708 1700.58 246.455 1701.08 246.455H1702.6C1703.11 246.455 1703.36 246.708 1703.36 247.214V248.732H1713C1723.64 248.732 1732 257.331 1732 267.7V279.84L1733.78 288.946V299.315C1734.29 299.315 1734.54 299.568 1734.54 300.074V301.591C1734.54 302.097 1734.29 302.35 1733.78 302.35H1732V310.444C1732 321.066 1723.39 329.412 1713 329.412H1700.83L1691.7 331.183H1681.31C1681.31 331.689 1681.06 331.942 1680.55 331.942H1679.03C1678.53 331.942 1678.27 331.689 1678.27 331.183V329.16H1531.01V330.93C1531.01 331.436 1530.76 331.689 1530.25 331.689H1528.73C1528.23 331.689 1527.97 331.436 1527.97 330.93H1517.58L1508.46 329.16H1496.29C1492.23 329.16 1488.94 332.447 1488.94 336.494V347.117H1490.46C1490.97 347.117 1491.22 347.37 1491.22 347.876V349.393C1491.22 349.899 1490.97 350.152 1490.46 350.152V360.521L1488.69 369.626V381.767C1488.69 385.813 1491.98 389.101 1496.04 389.101H1506.68V387.078C1506.68 386.572 1506.94 386.319 1507.44 386.319H1508.96C1509.47 386.319 1509.72 386.572 1509.72 387.078H1520.12L1529.24 388.848H1862.57V387.078C1862.57 386.572 1862.82 386.319 1863.33 386.319H1864.85C1865.35 386.319 1865.61 386.572 1865.61 387.078H1876L1885.12 388.848H1912.75L1921.88 387.078H1933.03C1933.03 386.572 1933.28 386.319 1933.79 386.319H1935.06C1935.56 386.319 1935.82 386.572 1935.82 387.078V402.759C1935.82 403.265 1935.56 403.518 1935.06 403.518H1933.53C1933.03 403.518 1932.77 403.265 1932.77 402.759H1921.62L1912.5 400.988H1885.12L1876 402.759H1865.61C1865.61 403.265 1865.35 403.518 1864.85 403.518H1863.33C1862.82 403.518 1862.57 403.265 1862.57 402.759V400.988H1529.24L1520.62 401.241Z" fill="#F3EBE0"/>
<defs>
<clipPath id="clip0_2008_515">
<rect width="183" height="15" fill="white" transform="translate(123 194)"/>
</clipPath>
<clipPath id="clip1_2008_515">
<rect width="183" height="15" fill="white" transform="translate(548 194)"/>
</clipPath>
<clipPath id="clip2_2008_515">
<rect width="183" height="15" fill="white" transform="translate(976 194)"/>
</clipPath>
<clipPath id="clip3_2008_515">
<rect width="183" height="15" fill="white" transform="translate(1402 194)"/>
</clipPath>
<clipPath id="clip4_2008_515">
<rect width="183" height="15" fill="white" transform="translate(-58 194)"/>
</clipPath>
<clipPath id="clip5_2008_515">
<rect width="183" height="15" fill="white" transform="translate(415 194)"/>
</clipPath>
<clipPath id="clip6_2008_515">
<rect width="183" height="15" fill="white" transform="translate(843 194)"/>
</clipPath>
<clipPath id="clip7_2008_515">
<rect width="183" height="15" fill="white" transform="translate(1269 194)"/>
</clipPath>
<clipPath id="clip8_2008_515">
<rect width="183" height="15" fill="white" transform="translate(1752 194)"/>
</clipPath>
<clipPath id="clip9_2008_515">
<rect width="183" height="15" fill="white" transform="translate(290 194)"/>
</clipPath>
<clipPath id="clip10_2008_515">
<rect width="183" height="15" fill="white" transform="translate(718 194)"/>
</clipPath>
<clipPath id="clip11_2008_515">
<rect width="183" height="15" fill="white" transform="translate(1144 194)"/>
</clipPath>
<clipPath id="clip12_2008_515">
<rect width="183" height="15" fill="white" transform="translate(1581 194)"/>
</clipPath>
<clipPath id="clip13_2008_515">
<rect width="57" height="58" fill="white" transform="matrix(-1 0 0 1 252 138)"/>
</clipPath>
<clipPath id="clip14_2008_515">
<rect width="57" height="58" fill="white" transform="matrix(-1 0 0 1 1105 138)"/>
</clipPath>
</defs>
</svg>
