<svg width="161" height="60" viewBox="0 0 161 60" fill="none" xmlns="http://www.w3.org/2000/svg">
<g clip-path="url(#clip0_17_2)">
<path d="M55.1709 28.03H64.9866V37.9362H84.3923V45.4784H61.6019C57.7658 45.4784 55.1709 42.7767 55.1709 38.6116V28.03Z" fill="black"/>
<path d="M84.7308 45.7036H61.7147C59.7967 45.7036 58.1044 45.0281 56.9761 43.9024C55.7351 42.6642 55.0581 40.863 55.0581 38.6116V27.8049H65.4379V37.7111H84.8437V45.7036H84.7308ZM55.5094 28.2552V38.6116C55.5094 40.6379 56.0735 42.3264 57.3146 43.5647C58.4428 44.6904 59.9095 45.2533 61.7147 45.2533H84.2795V38.2739H64.8738V28.3677H55.5094V28.2552Z" fill="black"/>
<path d="M131.214 28.03H141.03V37.9362H160.436V45.4784H137.645C133.809 45.4784 131.214 42.7767 131.214 38.6116V28.03Z" fill="black"/>
<path d="M160.662 45.7036H137.645C135.727 45.7036 134.035 45.0281 132.907 43.9024C131.666 42.6642 130.989 40.863 130.989 38.6116V27.8049H141.369V37.7111H160.774V45.7036H160.662ZM131.44 28.2552V38.6116C131.44 40.6379 132.004 42.3264 133.245 43.5647C134.373 44.6904 135.84 45.2533 137.645 45.2533H160.21V38.2739H140.804V28.3677H131.44V28.2552Z" fill="black"/>
<path d="M104.137 28.03H93.9825V45.8161H104.137V28.03Z" fill="black"/>
<path d="M104.362 46.0413H93.7568V27.8049H104.362V46.0413ZM94.2081 45.4784H103.798V28.2552H94.0953V45.4784H94.2081Z" fill="black"/>
<path d="M8.01052 22.9643C8.01052 22.9643 5.97968 31.97 10.3798 37.9362C13.7645 42.6642 17.6006 45.1407 22.5648 44.015C27.5291 42.7767 25.8367 37.1482 25.8367 37.1482C25.8367 37.1482 25.3854 34.3339 22.5648 30.0563C20.534 27.0169 18.5032 23.7523 18.5032 23.7523C18.5032 23.7523 11.2824 14.1839 19.0673 7.09192C19.0673 7.09192 17.0364 12.7204 20.9853 17.4484C24.1444 21.3884 24.7085 21.9512 29.5599 26.3414C34.5242 30.7317 36.7807 34.5591 36.7807 34.5591C36.7807 34.5591 41.6321 40.7505 37.6833 47.5047C33.7344 54.2589 24.4828 54.0338 24.4828 54.0338C24.4828 54.0338 13.7645 54.5966 7.67205 45.2533C1.57954 35.9099 8.01052 22.9643 8.01052 22.9643Z" fill="black"/>
<path d="M24.1444 54.2589C22.3392 54.2589 12.9748 53.8086 7.44643 45.3658C1.35393 36.0225 7.67208 22.9643 7.7849 22.8518L8.34902 21.6135L8.01055 22.8518C8.01055 22.9643 6.09254 31.8574 10.3799 37.711C14.2159 43.1144 18.0519 45.0281 22.5649 43.9024C23.8059 43.5647 24.8213 42.8893 25.3855 41.9887C26.5137 39.9624 25.8368 37.2608 25.8368 37.2608C25.8368 37.2608 25.2726 34.4465 22.5649 30.1688C20.534 27.242 18.5032 23.9775 18.5032 23.8649C18.3904 23.7523 11.2824 14.0713 19.0673 6.97933L19.5186 6.52905L19.1801 7.20447C19.1801 7.20447 17.1493 12.7204 20.9853 17.4484C24.1444 21.3883 24.7085 21.9512 29.3343 26.1163L29.56 26.3414C34.5242 30.6191 36.7807 34.5591 36.8935 34.6716C36.8935 34.6716 41.745 40.9756 37.7961 47.8424C33.8473 54.5966 24.4829 54.3715 24.4829 54.3715C24.4829 54.2589 24.37 54.2589 24.1444 54.2589ZM7.55925 24.2026C6.20536 27.5797 2.82064 37.5985 7.67208 45.2533C13.6518 54.484 24.2572 54.0337 24.37 54.0337C24.4829 54.0337 33.5088 54.2589 37.4576 47.6172C41.2937 40.9756 36.6679 34.8968 36.5551 34.7842C36.5551 34.6716 34.1857 30.8442 29.3343 26.5666L29.1087 26.3414C24.4829 22.0638 23.9187 21.5009 20.7597 17.5609C17.6006 13.621 18.2775 9.23074 18.7288 7.65476C11.8466 14.5215 18.616 23.6397 18.616 23.7523C18.616 23.7523 20.6469 27.0169 22.6777 30.0563C25.4983 34.3339 26.0624 37.1482 26.0624 37.2608C26.0624 37.3733 26.8522 40.075 25.6111 42.2139C25.047 43.227 24.0316 44.015 22.5649 44.3527C17.9391 45.4784 13.9902 43.4521 10.1542 38.2739C6.88231 33.4334 7.22078 27.0169 7.55925 24.2026Z" fill="black"/>
<path d="M38.3602 50.5441L37.7961 51.4446C37.7961 51.4446 50.0939 53.3583 45.0168 54.8217C33.5088 57.9737 17.1493 56.7354 17.1493 56.7354C17.1493 56.7354 7.10794 56.3977 3.38475 54.7092C-0.451272 53.0206 7.33359 51.7823 7.33359 51.7823C7.33359 51.7823 9.02595 51.5572 10.0414 51.5572L9.59007 50.6566C9.59007 50.6566 5.30276 50.7692 1.91803 52.3452C-4.06164 55.272 6.99512 57.4109 13.9902 57.8611C20.9853 58.3114 39.4885 58.6491 46.2579 55.6097C51.2222 53.5835 45.8066 51.2195 38.3602 50.5441Z" fill="black"/>
<path d="M24.0315 58.424C19.857 58.424 16.1338 58.3114 14.103 58.1989C8.91311 57.7486 0.451297 56.3977 3.07336e-07 54.2589C-0.112824 53.5835 0.451297 52.9081 1.80519 52.2326C5.07709 50.6566 9.3644 50.4315 9.47722 50.4315H9.59005L10.4926 51.7823H10.0413C9.13875 51.7823 7.33357 52.0075 7.33357 52.0075C5.41556 52.3452 2.59495 53.0206 2.48213 53.696C2.48213 53.8086 2.48213 54.0338 3.38472 54.484C7.10792 56.1726 16.8108 56.3977 16.9236 56.3977C17.1493 56.3977 33.3959 57.636 44.7912 54.484C45.9194 54.1463 45.9194 53.9212 45.9194 53.9212C45.9194 53.2458 41.6321 52.2326 37.6833 51.5572L37.3448 51.4446L38.2474 50.2064H38.3602C42.8732 50.6566 48.1759 51.8949 48.5144 53.8086C48.6272 54.5966 47.9502 55.272 46.5964 55.8349C41.8577 57.8611 32.042 58.424 24.0315 58.424ZM9.47722 50.8818C8.68746 50.8818 4.96426 51.2195 2.14366 52.5703C1.35389 52.9081 0.451297 53.4709 0.564121 54.1463C0.902593 55.7223 7.89769 57.2983 14.103 57.636C20.1955 58.0863 39.2628 58.424 46.3707 55.3846C47.1605 55.0469 48.1759 54.484 48.0631 53.8086C47.8374 52.6829 44.5655 51.3321 38.473 50.6566L38.1345 51.1069C40.5039 51.4446 46.2579 52.5703 46.3707 53.8086C46.3707 54.3715 45.5809 54.7092 44.904 54.8217C33.5088 57.9737 17.0364 56.848 16.9236 56.7354C16.5851 56.7354 6.9951 56.3977 3.15908 54.7092C2.25648 54.3715 1.91801 53.9212 2.03083 53.4709C2.14366 52.2326 6.43097 51.4446 7.22074 51.3321C7.33357 51.3321 8.57463 51.1069 9.59005 51.1069L9.47722 50.8818Z" fill="black"/>
<path d="M61.9404 48.8555V50.6567C61.7148 50.4315 61.3763 50.3189 61.0378 50.2064C60.6994 50.0938 60.3609 49.9812 60.0224 49.9812C59.2326 49.9812 58.6685 50.2064 58.2172 50.7692C57.7659 51.2195 57.4275 52.0075 57.4275 52.7955C57.3146 53.9212 57.4275 54.8218 57.8788 55.3846C58.3301 55.9475 59.007 56.2852 59.9096 56.2852C60.2481 56.2852 60.6994 56.1726 61.1507 56.06C61.7148 55.9475 62.1661 55.7223 62.7302 55.4972L61.9404 57.1857C61.4891 57.2983 61.1507 57.4109 60.6994 57.5234C60.2481 57.636 59.7968 57.636 59.2326 57.636C57.7659 57.636 56.6377 57.1857 55.8479 56.3977C55.171 55.4972 54.8325 54.4841 54.9453 53.2458C55.0582 51.8949 55.6223 50.8818 56.5249 50.0938C57.4275 49.3058 58.6685 48.8555 60.0224 48.8555C60.3609 48.8555 60.6994 48.8555 61.0378 48.9681C61.3763 49.0807 61.602 48.8555 61.9404 48.8555ZM62.9558 51.5572H69.6125C69.4996 51.6698 69.3868 51.7824 69.274 52.0075C69.1612 52.1201 69.1612 52.3452 69.1612 52.6829L68.597 56.2852C68.597 56.5103 68.597 56.7355 68.597 56.9606C68.597 57.0732 68.7099 57.2983 68.8227 57.4109H65.7764C65.8893 57.2983 66.0021 57.1857 66.1149 56.9606C66.2277 56.848 66.2277 56.6229 66.3406 56.2852L66.679 52.5704H65.438L64.9867 56.2852C64.9867 56.5103 64.9867 56.7355 64.9867 56.9606C64.9867 57.0732 65.0995 57.2983 65.3251 57.4109H62.2789C62.3917 57.2983 62.5045 57.1857 62.6174 56.9606C62.7302 56.848 62.7302 56.6229 62.843 56.2852L63.1815 52.5704C63.1815 52.3452 63.1815 52.1201 63.1815 51.8949C63.1815 51.6698 63.0687 51.6698 62.9558 51.5572ZM76.0434 54.4841H72.0946C71.9818 55.0469 72.0946 55.4972 72.3202 55.8349C72.5459 56.1726 72.9972 56.3977 73.6741 56.3977C74.0126 56.3977 74.3511 56.2852 74.6895 56.1726C75.028 56.06 75.4793 55.8349 75.9306 55.6098L75.2537 57.0732C74.9152 57.1857 74.5767 57.2983 74.2383 57.4109C73.8998 57.5235 73.4485 57.5234 72.9972 57.5234C71.7561 57.5234 70.9664 57.2983 70.4022 56.7355C69.8381 56.1726 69.6125 55.4972 69.7253 54.5966C69.8381 53.8086 70.1766 53.0206 70.8535 52.4578C71.5305 51.8949 72.3202 51.5572 73.3357 51.5572C74.3511 51.5572 75.028 51.8949 75.4793 52.4578C75.9306 52.9081 76.1563 53.5835 76.0434 54.4841ZM72.3202 53.4709H74.0126C74.0126 53.2458 74.0126 53.0206 73.8998 52.7955C73.787 52.6829 73.5613 52.5704 73.3357 52.5704C73.11 52.5704 72.8844 52.6829 72.7715 52.7955C72.4331 52.9081 72.3202 53.1332 72.3202 53.4709ZM76.946 51.5572H79.9923C79.8795 51.6698 79.7666 51.7824 79.6538 52.0075C79.541 52.1201 79.541 52.3452 79.541 52.6829L79.0897 56.2852H80.4436L80.782 52.5704C80.782 52.3452 80.782 52.1201 80.782 51.8949C80.782 51.7824 80.6692 51.5572 80.5564 51.4447H83.4898C83.377 51.5572 83.2642 51.6698 83.1514 51.8949C83.0385 52.0075 83.0385 52.2326 83.0385 52.5704L82.5872 56.2852H83.4898L83.1514 58.9869L82.0231 59.3246C82.1359 58.6492 82.0231 58.1989 81.9103 57.8612C81.6846 57.5235 81.3462 57.2983 80.8949 57.2983H76.2691C76.3819 57.1857 76.4947 57.0732 76.6076 56.848C76.7204 56.7355 76.7204 56.5103 76.8332 56.1726L77.1717 52.4578C77.1717 52.2326 77.1717 52.0075 77.1717 51.7824C77.1717 51.5572 77.0589 51.6698 76.946 51.5572ZM87.4387 48.8555H92.7414C92.8542 48.8555 92.8542 48.8555 92.8542 48.8555H92.9671L92.8542 50.8818C92.7414 50.6567 92.6286 50.5441 92.4029 50.4315C92.2901 50.3189 91.9516 50.3189 91.726 50.3189H90.0336L89.4695 56.06C89.4695 56.3977 89.4695 56.6229 89.4695 56.848C89.4695 57.0732 89.5823 57.1857 89.808 57.4109H86.5361C86.7617 57.2983 86.8745 57.0732 86.9874 56.848C87.1002 56.6229 87.213 56.3977 87.213 56.06L87.7771 50.2064C87.7771 49.8687 87.7771 49.6435 87.7771 49.4184C87.6643 49.1932 87.5515 49.0807 87.4387 48.8555ZM95.2235 55.1595L97.48 51.5572H99.8493C99.7365 51.6698 99.6237 51.7824 99.5108 52.0075C99.398 52.1201 99.398 52.3452 99.398 52.6829L98.9467 56.2852C98.9467 56.5103 98.9467 56.7355 98.9467 56.9606C98.9467 57.0732 99.0596 57.2983 99.2852 57.4109H96.239C96.3518 57.2983 96.4646 57.1857 96.5774 56.9606C96.6903 56.7355 96.6903 56.6229 96.8031 56.2852L97.0287 53.6961L94.7722 57.4109H92.2901C92.4029 57.2983 92.5158 57.1857 92.6286 56.9606C92.7414 56.7355 92.7414 56.6229 92.8542 56.2852L93.1927 52.5704C93.1927 52.3452 93.1927 52.1201 93.1927 51.8949C93.1927 51.7824 93.0799 51.5572 92.9671 51.4447H96.0133C95.9005 51.5572 95.7877 51.6698 95.6748 51.8949C95.562 52.0075 95.562 52.2326 95.562 52.5704L95.2235 55.1595ZM100.865 51.5572H106.28C106.167 51.6698 106.055 51.7824 105.942 52.0075C105.829 52.1201 105.829 52.3452 105.829 52.6829L105.378 56.2852H106.28L106.055 58.9869L104.926 59.3246C105.039 58.6492 104.926 58.0863 104.814 57.8612C104.701 57.5235 104.362 57.4109 104.024 57.4109H101.429C100.978 57.4109 100.752 57.5235 100.526 57.8612C100.301 58.1989 100.188 58.6492 100.075 59.3246L99.0596 58.9869L99.2852 56.2852H100.075C100.413 55.8349 100.752 55.3846 100.978 54.8218C101.203 54.2589 101.316 53.6961 101.429 53.0206C101.429 52.5704 101.429 52.2326 101.316 52.0075C101.203 51.7824 101.09 51.6698 100.865 51.5572ZM103.573 52.6829H102.444C102.444 52.7955 102.444 52.9081 102.444 53.0206C102.444 53.1332 102.444 53.2458 102.444 53.3584C102.331 53.9212 102.219 54.4841 102.106 54.9343C101.993 55.3846 101.767 55.9475 101.542 56.3977H103.234L103.573 52.6829ZM108.988 60H106.055C106.167 59.8874 106.28 59.7749 106.393 59.5497C106.506 59.4371 106.506 59.212 106.619 58.8743L107.183 52.9081C107.183 52.5704 107.183 52.3452 107.183 52.1201C107.183 51.8949 107.07 51.7824 106.844 51.5572H108.537C108.762 51.5572 108.988 51.5572 109.101 51.5572C109.214 51.5572 109.327 51.4447 109.439 51.4447V52.2326C109.665 52.0075 109.891 51.7824 110.229 51.6698C110.568 51.5572 110.906 51.4447 111.245 51.4447C112.034 51.4447 112.711 51.6698 113.05 52.2326C113.501 52.7955 113.614 53.4709 113.501 54.3715C113.388 55.3846 113.05 56.1726 112.486 56.6229C111.922 57.1857 111.132 57.4109 110.229 57.4109C110.116 57.4109 110.003 57.4109 110.003 57.4109C109.891 57.4109 109.778 57.4109 109.778 57.4109L109.439 56.2852H109.552C109.552 56.2852 109.665 56.2852 109.778 56.2852C110.229 56.2852 110.568 56.1726 110.793 55.8349C111.019 55.4972 111.245 55.1595 111.245 54.5966C111.357 53.9212 111.245 53.4709 111.132 53.1332C111.019 52.7955 110.68 52.6829 110.342 52.6829C110.116 52.6829 109.778 52.7955 109.665 53.0206C109.439 53.2458 109.327 53.4709 109.327 53.8086L108.762 58.8743C108.762 59.0994 108.762 59.3246 108.762 59.5497C108.875 59.7749 108.875 59.8874 108.988 60ZM114.178 54.4841C114.291 53.5835 114.629 52.7955 115.419 52.2326C116.096 51.6698 116.999 51.4447 118.127 51.4447C119.142 51.4447 120.045 51.7824 120.609 52.2326C121.173 52.7955 121.399 53.4709 121.286 54.3715C121.173 55.3846 120.722 56.06 120.045 56.6229C119.255 57.1857 118.465 57.4109 117.45 57.4109C116.322 57.4109 115.532 57.1857 114.968 56.6229C114.291 56.1726 114.065 55.3846 114.178 54.4841ZM116.547 54.3715C116.434 55.0469 116.547 55.4972 116.66 55.8349C116.773 56.1726 117.111 56.3977 117.563 56.3977C117.901 56.3977 118.24 56.2852 118.465 55.9475C118.691 55.6098 118.804 55.1595 118.917 54.5966C119.029 53.9212 118.917 53.4709 118.691 53.1332C118.465 52.7955 118.24 52.6829 117.788 52.6829C117.45 52.6829 117.111 52.7955 116.886 53.1332C116.66 53.3583 116.547 53.8086 116.547 54.3715ZM132.004 48.8555L131.891 50.6567C131.666 50.4315 131.327 50.3189 130.989 50.2064C130.65 50.0938 130.312 49.9812 129.973 49.9812C129.184 49.9812 128.619 50.2064 128.168 50.7692C127.717 51.2195 127.378 52.0075 127.378 52.7955C127.266 53.9212 127.378 54.8218 127.83 55.3846C128.281 55.9475 128.958 56.2852 129.861 56.2852C130.199 56.2852 130.65 56.1726 131.102 56.06C131.666 55.9475 132.117 55.7223 132.681 55.4972L131.891 57.1857C131.44 57.2983 131.102 57.4109 130.65 57.5234C130.199 57.636 129.748 57.636 129.184 57.636C127.717 57.636 126.589 57.1857 125.799 56.3977C125.122 55.4972 124.783 54.4841 124.896 53.2458C125.009 51.8949 125.573 50.8818 126.476 50.0938C127.378 49.3058 128.619 48.8555 129.973 48.8555C130.312 48.8555 130.65 48.8555 130.989 48.9681C131.327 48.743 131.666 48.8555 132.004 48.8555ZM138.21 51.4447L137.758 53.1332C137.758 52.9081 137.645 52.7955 137.533 52.7955C137.42 52.6829 137.307 52.6829 137.081 52.6829H136.517L136.179 56.3977C136.179 56.6229 136.179 56.848 136.179 57.0732C136.179 57.1857 136.292 57.4109 136.404 57.5234H133.358C133.471 57.4109 133.584 57.2983 133.697 57.0732C133.809 56.9606 133.809 56.7355 133.922 56.3977L134.261 52.6829H133.697C133.471 52.6829 133.358 52.6829 133.132 52.7955C132.907 52.9081 132.794 53.0206 132.568 53.2458L133.132 51.5572C133.132 51.5572 133.245 51.5572 133.245 51.6698H133.358H138.097C138.21 51.6698 138.21 51.6698 138.322 51.6698C138.097 51.5572 138.21 51.5572 138.21 51.4447ZM140.466 60H137.533C137.645 59.8874 137.758 59.7749 137.871 59.5497C137.984 59.4371 137.984 59.212 138.097 58.8743L138.774 52.7955C138.774 52.4578 138.774 52.2326 138.774 52.0075C138.774 51.7824 138.661 51.6698 138.435 51.4447H140.128C140.353 51.4447 140.579 51.4447 140.692 51.4447C140.804 51.4447 140.917 51.3321 141.03 51.3321L140.917 52.2326C141.143 52.0075 141.369 51.7824 141.707 51.6698C142.046 51.5572 142.384 51.4447 142.722 51.4447C143.512 51.4447 144.189 51.6698 144.528 52.2326C144.979 52.7955 145.092 53.4709 144.979 54.3715C144.866 55.3846 144.528 56.1726 143.964 56.6229C143.399 57.1857 142.61 57.4109 141.707 57.4109C141.594 57.4109 141.481 57.4109 141.481 57.4109C141.369 57.4109 141.256 57.4109 141.256 57.4109L140.917 56.2852H141.03C141.03 56.2852 141.143 56.2852 141.256 56.2852C141.707 56.2852 142.046 56.1726 142.271 55.8349C142.497 55.4972 142.722 55.1595 142.722 54.5966C142.835 53.9212 142.722 53.4709 142.61 53.1332C142.497 52.7955 142.158 52.6829 141.82 52.6829C141.594 52.6829 141.256 52.7955 141.143 53.0206C140.917 53.2458 140.804 53.4709 140.804 53.8086L140.24 58.8743C140.24 59.0994 140.24 59.3246 140.24 59.5497C140.24 59.7749 140.24 59.8874 140.466 60ZM145.543 54.4841C145.656 53.5835 145.994 52.7955 146.784 52.2326C147.574 51.6698 148.364 51.4447 149.492 51.4447C150.507 51.4447 151.41 51.7824 151.974 52.2326C152.538 52.7955 152.764 53.4709 152.651 54.3715C152.538 55.3846 152.087 56.06 151.41 56.6229C150.62 57.1857 149.83 57.4109 148.815 57.4109C147.687 57.4109 146.897 57.1857 146.333 56.6229C145.656 56.1726 145.43 55.3846 145.543 54.4841ZM147.912 54.3715C147.8 55.0469 147.912 55.4972 148.025 55.8349C148.138 56.1726 148.477 56.3977 148.928 56.3977C149.266 56.3977 149.605 56.2852 149.83 55.9475C150.056 55.6098 150.169 55.1595 150.282 54.5966C150.395 53.9212 150.282 53.4709 150.056 53.1332C149.83 52.7955 149.605 52.6829 149.153 52.6829C148.815 52.6829 148.477 52.7955 148.251 53.1332C148.138 53.3583 147.912 53.8086 147.912 54.3715ZM155.81 55.1595L158.067 51.5572H160.436C160.323 51.6698 160.21 51.7824 160.097 52.0075C159.985 52.1201 159.985 52.3452 159.985 52.6829L159.646 56.3977C159.646 56.6229 159.646 56.848 159.646 57.0732C159.646 57.1857 159.759 57.4109 159.985 57.5234H156.825C156.938 57.4109 157.051 57.2983 157.164 57.0732C157.277 56.9606 157.277 56.7355 157.39 56.3977L157.615 53.8086L155.359 57.4109H152.877C152.989 57.2983 153.102 57.1857 153.215 56.9606C153.328 56.848 153.328 56.6229 153.441 56.2852L153.779 52.5704C153.779 52.3452 153.779 52.1201 153.779 51.8949C153.779 51.7824 153.666 51.5572 153.554 51.4447H156.6C156.487 51.5572 156.374 51.6698 156.261 51.8949C156.149 52.0075 156.149 52.2326 156.149 52.5704L155.81 55.1595ZM155.133 49.0807H156.713C156.487 49.3058 156.374 49.531 156.487 49.7561C156.6 49.9812 156.825 50.0938 157.051 50.0938C157.39 50.0938 157.615 49.9812 157.728 49.7561C157.841 49.531 157.841 49.3058 157.615 49.0807H159.195C159.195 49.6435 158.969 50.0938 158.518 50.5441C158.067 50.8818 157.502 51.1069 156.938 51.1069C156.374 51.1069 155.81 50.8818 155.472 50.5441C155.246 50.0938 155.02 49.6435 155.133 49.0807Z" fill="black"/>
<path d="M84.9566 26.2289H54.8325V25.3284C54.8325 23.0769 54.8325 20.6004 56.4121 18.9118C57.3147 17.8987 58.7814 17.4484 60.6994 17.4484H84.9566V26.2289Z" fill="url(#paint0_linear_17_2)"/>
<path d="M121.963 26.2289H93.7568V17.561H122.076V26.2289H121.963ZM94.2081 25.666H121.512V18.0113H94.2081V25.666Z" fill="black"/>
<path d="M121.512 18.0112H94.2081V25.666H121.512V18.0112Z" fill="url(#paint1_linear_17_2)"/>
<path d="M18.7288 40.7505C18.5032 40.7505 18.1647 40.7505 17.9391 40.7505C17.1493 40.6379 16.3595 40.4128 15.5697 39.8499L15.2313 39.6248L15.5697 39.3996C15.6826 39.2871 17.9391 37.8237 15.9082 33.7711C13.7646 29.3809 11.9594 25.7786 11.9594 25.7786C11.9594 25.7786 7.55924 19.5873 13.2004 13.9587L13.8774 13.2833L13.5389 14.2965C13.5389 14.2965 12.6363 17.7861 14.6672 22.1764C16.8108 26.7918 20.534 34.2214 20.534 34.334C20.6468 34.4466 22.3392 38.0488 21.0981 39.8499C20.6468 40.4128 19.8571 40.7505 18.7288 40.7505Z" fill="url(#paint2_linear_17_2)"/>
<path d="M42.3091 41.4259L41.8578 41.3133C41.8578 41.2008 43.4373 35.0094 36.3294 28.1426C29.1086 21.1632 24.9341 17.2233 24.9341 17.1107C24.8213 16.9981 20.9853 13.8462 20.7597 9.23077C20.6468 6.52908 21.6622 3.93996 24.0316 1.57598L25.4983 0L24.37 1.9137C24.37 1.9137 22.3392 5.51595 28.4317 11.9325C34.637 18.5741 37.6833 21.6135 37.7961 21.6135C37.7961 21.7261 45.8066 30.7317 42.3091 41.4259Z" fill="url(#paint3_linear_17_2)"/>
<path d="M42.3091 41.4259L41.8578 41.3133C41.8578 41.2008 43.4373 35.0094 36.3294 28.1426C29.1086 21.1632 24.9341 17.2233 24.9341 17.1107C24.8213 16.9981 20.9853 13.8462 20.7597 9.23077C20.6468 6.52908 21.6622 3.93996 24.0316 1.57598L25.4983 0L24.37 1.9137C24.37 1.9137 22.3392 5.51595 28.4317 11.9325C34.637 18.5741 37.6833 21.6135 37.7961 21.6135C37.7961 21.7261 45.8066 30.7317 42.3091 41.4259ZM23.5803 2.70169C21.8879 4.84053 21.0981 6.97936 21.211 9.23077C21.4366 13.621 25.1598 16.773 25.2726 16.773C25.2726 16.773 29.5599 20.8255 36.7807 27.8049C41.2936 32.1951 42.4219 36.3602 42.5347 38.9493C44.2271 29.606 37.5704 22.0638 37.4576 21.9512C37.4576 21.9512 34.2985 18.7992 28.0932 12.2702C23.5803 7.54221 23.3546 4.27767 23.5803 2.70169Z" fill="black"/>
<path d="M18.7288 40.7505C18.5032 40.7505 18.1647 40.7505 17.9391 40.7505C17.1493 40.6379 16.3595 40.4128 15.5697 39.8499L15.2313 39.6248L15.5697 39.3996C15.6826 39.2871 17.9391 37.8237 15.9082 33.7711C13.7646 29.3809 11.9594 25.7786 11.9594 25.7786C11.9594 25.7786 7.55924 19.5873 13.2004 13.9587L13.8774 13.2833L13.5389 14.2965C13.5389 14.2965 12.6363 17.7861 14.6672 22.1764C16.8108 26.7918 20.534 34.2214 20.534 34.334C20.6468 34.4466 22.3392 38.0488 21.0981 39.8499C20.6468 40.4128 19.8571 40.7505 18.7288 40.7505ZM16.021 39.6248C16.698 39.9625 17.2621 40.1876 17.9391 40.1876C19.4058 40.3002 20.3084 40.0751 20.7597 39.3996C21.8879 37.8237 20.1955 34.4466 20.1955 34.334C20.1955 34.2214 16.4723 26.7918 14.3287 22.1764C12.7491 18.7993 12.862 16.0976 12.9748 14.7467C8.46183 19.8124 12.185 25.1032 12.2979 25.4409C12.2979 25.4409 14.103 29.1557 16.3595 33.4334C18.0519 37.2608 16.698 39.0619 16.021 39.6248Z" fill="black"/>
<path d="M84.9566 26.2289H54.8325V25.3284C54.8325 23.0769 54.8325 20.6004 56.4121 18.9118C57.3147 17.8987 58.7814 17.4484 60.6994 17.4484H84.9566V26.2289ZM55.2838 25.6661H84.3924V18.0113H60.6994C58.8942 18.0113 57.6531 18.4616 56.7505 19.2496C55.2838 20.713 55.2838 23.1895 55.2838 25.3284V25.6661Z" fill="black"/>
<path d="M161 26.2289H130.876V25.3284C130.876 23.0769 130.876 20.6004 132.456 18.9118C133.358 17.8987 134.825 17.4484 136.743 17.4484H161V26.2289Z" fill="url(#paint4_linear_17_2)"/>
<path d="M161 26.2289H130.876V25.3284C130.876 23.0769 130.876 20.6004 132.456 18.9118C133.358 17.8987 134.825 17.4484 136.743 17.4484H161V26.2289ZM131.44 25.6661H160.549V18.0113H136.743C134.938 18.0113 133.697 18.4616 132.794 19.2496C131.327 20.713 131.327 23.0769 131.44 25.2158V25.6661Z" fill="black"/>
</g>
<defs>
<linearGradient id="paint0_linear_17_2" x1="60.948" y1="32.2643" x2="80.2745" y2="12.8941" gradientUnits="userSpaceOnUse">
<stop stop-color="#C69C6E"/>
<stop offset="0.2877" stop-color="#FCC986"/>
<stop offset="0.5447" stop-color="#C69C6E"/>
<stop offset="0.7793" stop-color="#FCC986"/>
<stop offset="1" stop-color="#C69C6E"/>
</linearGradient>
<linearGradient id="paint1_linear_17_2" x1="99.097" y1="30.6063" x2="116.591" y2="13.0726" gradientUnits="userSpaceOnUse">
<stop stop-color="#C69C6E"/>
<stop offset="0.2877" stop-color="#FCC986"/>
<stop offset="0.5447" stop-color="#C69C6E"/>
<stop offset="0.7793" stop-color="#FCC986"/>
<stop offset="1" stop-color="#C69C6E"/>
</linearGradient>
<linearGradient id="paint2_linear_17_2" x1="10.2323" y1="27.0941" x2="21.645" y2="27.0941" gradientUnits="userSpaceOnUse">
<stop stop-color="#C69C6E"/>
<stop offset="0.2877" stop-color="#FCC986"/>
<stop offset="0.5447" stop-color="#C69C6E"/>
<stop offset="0.7793" stop-color="#FCC986"/>
<stop offset="1" stop-color="#C69C6E"/>
</linearGradient>
<linearGradient id="paint3_linear_17_2" x1="20.6761" y1="20.7057" x2="43.1846" y2="20.7057" gradientUnits="userSpaceOnUse">
<stop stop-color="#C69C6E"/>
<stop offset="0.2877" stop-color="#FCC986"/>
<stop offset="0.5447" stop-color="#C69C6E"/>
<stop offset="0.7793" stop-color="#FCC986"/>
<stop offset="1" stop-color="#C69C6E"/>
</linearGradient>
<linearGradient id="paint4_linear_17_2" x1="136.998" y1="32.2643" x2="156.325" y2="12.8941" gradientUnits="userSpaceOnUse">
<stop stop-color="#C69C6E"/>
<stop offset="0.2877" stop-color="#FCC986"/>
<stop offset="0.5447" stop-color="#C69C6E"/>
<stop offset="0.7793" stop-color="#FCC986"/>
<stop offset="1" stop-color="#C69C6E"/>
</linearGradient>
<clipPath id="clip0_17_2">
<rect width="161" height="60" fill="white"/>
</clipPath>
</defs>
</svg>
