<svg width="67" height="69" viewBox="0 0 67 69" fill="none" xmlns="http://www.w3.org/2000/svg">
<path d="M34 37C27.3812 37 22 42.3812 22 49C22 57.85 33.0687 68.375 33.5437 68.8188C33.675 68.9375 33.8375 69 34 69C34.1625 69 34.3312 68.9375 34.4562 68.8188C34.9312 68.375 46 57.85 46 49C46 42.3812 40.6187 37 34 37ZM34 55.6688C30.325 55.6688 27.3313 52.675 27.3313 49C27.3313 45.325 30.325 42.3313 34 42.3313C37.675 42.3313 40.6688 45.325 40.6688 49C40.6688 52.675 37.675 55.6688 34 55.6688Z" fill="#E88A14"/>
<g filter="url(#filter0_d_118_886)">
<circle cx="33.5" cy="29.5" r="27.5" fill="white"/>
</g>
<path d="M23.1743 26.5516C23.1743 26.5516 21.799 32.6503 24.7788 36.6907C27.071 39.8925 29.6687 41.5696 33.0306 40.8073C36.3924 39.9687 35.2463 36.157 35.2463 36.157C35.2463 36.157 34.9407 34.2512 33.0306 31.3543C31.6553 29.296 30.28 27.0852 30.28 27.0852C30.28 27.0852 25.39 20.6054 30.662 15.8027C30.662 15.8027 29.2867 19.6144 31.9609 22.8162C34.1003 25.4843 34.4823 25.8655 37.7677 28.8386C41.1296 31.8117 42.6577 34.4037 42.6577 34.4037C42.6577 34.4037 45.9431 38.5965 43.2689 43.1705C40.5947 47.7445 34.3295 47.5921 34.3295 47.5921C34.3295 47.5921 27.071 47.9732 22.9451 41.6458C18.8192 35.3185 23.1743 26.5516 23.1743 26.5516Z" fill="black"/>
<path d="M34.1003 47.7445C32.8778 47.7445 26.5362 47.4396 22.7923 41.7221C18.6664 35.3947 22.9451 26.5516 23.0215 26.4754L23.4036 25.6368L23.1743 26.4754C23.1743 26.5516 21.8754 32.5741 24.7789 36.5382C27.3766 40.1974 29.9744 41.4934 33.0306 40.731C33.8711 40.5023 34.5587 40.0449 34.9408 39.4351C35.7048 38.0629 35.2464 36.2333 35.2464 36.2333C35.2464 36.2333 34.8644 34.3274 33.0306 31.4306C31.6553 29.4485 30.28 27.2377 30.28 27.1615C30.2036 27.0852 25.3901 20.5292 30.6621 15.7265L30.9677 15.4215L30.7385 15.8789C30.7385 15.8789 29.3632 19.6144 31.961 22.8162C34.1003 25.4843 34.4823 25.8655 37.615 28.6862L37.7678 28.8386C41.1296 31.7355 42.6577 34.4037 42.7341 34.4799C42.7341 34.4799 46.0195 38.749 43.3454 43.3992C40.6712 47.9732 34.3295 47.8208 34.3295 47.8208C34.3295 47.7445 34.2531 47.7445 34.1003 47.7445ZM22.8687 27.3902C21.9519 29.6772 19.6597 36.462 22.9451 41.6458C26.9946 47.897 34.1767 47.5921 34.2531 47.5921C34.3295 47.5921 40.4419 47.7445 43.1161 43.2468C45.7139 38.749 42.5813 34.6324 42.5049 34.5561C42.5049 34.4799 40.9004 31.888 37.615 28.9911L37.4621 28.8386C34.3295 25.9417 33.9475 25.5606 31.8081 22.8924C29.6688 20.2242 30.1272 17.2511 30.4328 16.1839C25.7721 20.8341 30.3564 27.009 30.3564 27.0852C30.3564 27.0852 31.7317 29.296 33.107 31.3543C35.0172 34.2512 35.3992 36.157 35.3992 36.2333C35.3992 36.3095 35.934 38.1391 35.0936 39.5875C34.7115 40.2736 34.0239 40.8073 33.0306 41.036C29.898 41.7983 27.2238 40.4261 24.626 36.9194C22.4103 33.6413 22.6395 29.296 22.8687 27.3902Z" fill="black"/>
<path d="M30.4325 38.5965C30.2797 38.5965 30.0505 38.5965 29.8977 38.5965C29.3629 38.5203 28.828 38.3678 28.2932 37.9867L28.064 37.8342L28.2932 37.6817C28.3696 37.6055 29.8977 36.6145 28.5224 33.8701C27.0707 30.897 25.8482 28.4575 25.8482 28.4575C25.8482 28.4575 22.8684 24.2646 26.6887 20.453L27.1471 19.9956L26.9179 20.6817C26.9179 20.6817 26.3066 23.0449 27.6819 26.018C29.1336 29.1436 31.655 34.175 31.655 34.2512C31.7314 34.3275 32.8775 36.7669 32.037 37.9867C31.7314 38.3678 31.1966 38.5965 30.4325 38.5965Z" fill="url(#paint0_linear_118_886)"/>
<path d="M46.4014 39.0539L46.0958 38.9777C46.0958 38.9015 47.1654 34.7086 42.3519 30.0584C37.462 25.3319 34.635 22.6637 34.635 22.5875C34.5586 22.5113 31.9608 20.3767 31.808 17.2511C31.7316 15.4215 32.4192 13.6682 34.0237 12.0673L35.017 11L34.2529 12.296C34.2529 12.296 32.8776 14.7354 37.0035 19.0808C41.2058 23.5785 43.2688 25.6368 43.3452 25.6368C43.3452 25.7131 48.7699 31.8117 46.4014 39.0539Z" fill="url(#paint1_linear_118_886)"/>
<path d="M46.4014 39.0539L46.0958 38.9777C46.0958 38.9015 47.1654 34.7086 42.3519 30.0584C37.462 25.3319 34.635 22.6637 34.635 22.5875C34.5586 22.5113 31.9608 20.3767 31.808 17.2511C31.7316 15.4215 32.4192 13.6682 34.0237 12.0673L35.017 11L34.2529 12.296C34.2529 12.296 32.8776 14.7354 37.0035 19.0808C41.2058 23.5785 43.2688 25.6368 43.3452 25.6368C43.3452 25.7131 48.7699 31.8117 46.4014 39.0539ZM33.7181 12.8296C32.572 14.278 32.0372 15.7265 32.1136 17.2511C32.2664 20.2243 34.7878 22.3588 34.8642 22.3588C34.8642 22.3588 37.7676 25.1032 42.6575 29.8297C45.7137 32.8028 46.4778 35.6234 46.5542 37.3768C47.7003 31.0494 43.1924 25.9418 43.1159 25.8655C43.1159 25.8655 40.9766 23.731 36.7743 19.3095C33.7181 16.1076 33.5653 13.8969 33.7181 12.8296Z" fill="black"/>
<path d="M30.4325 38.5965C30.2797 38.5965 30.0505 38.5965 29.8977 38.5965C29.3629 38.5203 28.828 38.3678 28.2932 37.9867L28.064 37.8342L28.2932 37.6817C28.3696 37.6055 29.8977 36.6145 28.5224 33.8701C27.0707 30.897 25.8482 28.4575 25.8482 28.4575C25.8482 28.4575 22.8684 24.2646 26.6887 20.453L27.1471 19.9956L26.9179 20.6817C26.9179 20.6817 26.3066 23.0449 27.6819 26.018C29.1336 29.1436 31.655 34.175 31.655 34.2512C31.7314 34.3275 32.8775 36.7669 32.037 37.9867C31.7314 38.3678 31.1966 38.5965 30.4325 38.5965ZM28.5988 37.8342C29.0572 38.0629 29.4393 38.2154 29.8977 38.2154C30.891 38.2916 31.5022 38.1391 31.8078 37.6817C32.5719 36.6145 31.4258 34.3275 31.4258 34.2512C31.4258 34.175 28.9044 29.1436 27.4527 26.018C26.3831 23.731 26.4595 21.9014 26.5359 20.9866C23.4796 24.4171 26.001 28.0001 26.0774 28.2288C26.0774 28.2288 27.2999 30.7445 28.828 33.6414C29.9741 36.2333 29.0572 37.453 28.5988 37.8342Z" fill="black"/>
<defs>
<filter id="filter0_d_118_886" x="0" y="0" width="67" height="67" filterUnits="userSpaceOnUse" color-interpolation-filters="sRGB">
<feFlood flood-opacity="0" result="BackgroundImageFix"/>
<feColorMatrix in="SourceAlpha" type="matrix" values="0 0 0 0 0 0 0 0 0 0 0 0 0 0 0 0 0 0 127 0" result="hardAlpha"/>
<feOffset dy="4"/>
<feGaussianBlur stdDeviation="3"/>
<feComposite in2="hardAlpha" operator="out"/>
<feColorMatrix type="matrix" values="0 0 0 0 0 0 0 0 0 0 0 0 0 0 0 0 0 0 0.1 0"/>
<feBlend mode="normal" in2="BackgroundImageFix" result="effect1_dropShadow_118_886"/>
<feBlend mode="normal" in="SourceGraphic" in2="effect1_dropShadow_118_886" result="shape"/>
</filter>
<linearGradient id="paint0_linear_118_886" x1="24.6786" y1="29.3484" x2="32.4074" y2="29.3484" gradientUnits="userSpaceOnUse">
<stop stop-color="#C69C6E"/>
<stop offset="0.2877" stop-color="#FCC986"/>
<stop offset="0.5447" stop-color="#C69C6E"/>
<stop offset="0.7793" stop-color="#FCC986"/>
<stop offset="1" stop-color="#C69C6E"/>
</linearGradient>
<linearGradient id="paint1_linear_118_886" x1="31.7513" y1="25.0221" x2="46.9943" y2="25.0221" gradientUnits="userSpaceOnUse">
<stop stop-color="#C69C6E"/>
<stop offset="0.2877" stop-color="#FCC986"/>
<stop offset="0.5447" stop-color="#C69C6E"/>
<stop offset="0.7793" stop-color="#FCC986"/>
<stop offset="1" stop-color="#C69C6E"/>
</linearGradient>
</defs>
</svg>
