<svg width="18" height="17" viewBox="0 0 18 17" fill="none" xmlns="http://www.w3.org/2000/svg">
<path d="M14.4906 16.1006C14.35 16.1006 14.2103 16.059 14.0905 15.9777L9.56458 12.9077L7.13713 14.6544C6.94675 14.7913 6.70136 14.8258 6.48029 14.7467C6.25951 14.6675 6.09184 14.4846 6.03198 14.2578L4.81313 9.63873L0.458014 7.97346C0.183843 7.86858 0.00201159 7.60628 1.65783e-05 7.31273C-0.00197843 7.01918 0.176243 6.75441 0.449084 6.64583L17.0088 0.056585C17.084 0.0246648 17.1635 0.00623464 17.2437 0.00129461C17.2724 -0.0004154 17.3011 -0.000415348 17.3297 0.00119966C17.4958 0.0110797 17.6589 0.0787202 17.7862 0.203551C17.7994 0.216471 17.812 0.229676 17.8238 0.243451C17.9293 0.363912 17.9872 0.510783 17.9982 0.660409C18.0008 0.698029 18.0006 0.736124 17.9973 0.774219C17.995 0.80139 17.9911 0.828465 17.9856 0.85535L15.1904 15.5214C15.1455 15.757 14.9851 15.9543 14.7636 16.0461C14.6757 16.0826 14.5829 16.1006 14.4906 16.1006ZM9.96197 11.4553L13.9935 14.1899L16.1685 2.77807L8.31314 10.3369L9.94297 11.4425C9.94952 11.4466 9.95579 11.451 9.96197 11.4553ZM6.60588 10.8472L7.14568 12.8926L8.30867 12.0557L6.78581 11.0227C6.71504 10.9748 6.65443 10.9152 6.60588 10.8472ZM2.67295 7.29459L5.66338 8.43792C5.87761 8.51981 6.0393 8.69993 6.09782 8.92166L6.47706 10.3589C6.49445 10.1931 6.56959 10.0372 6.69167 9.91964L14.1767 2.71727L2.67295 7.29459Z" fill="black"/>
</svg>
