<svg width="18" height="18" viewBox="0 0 18 18" fill="none" xmlns="http://www.w3.org/2000/svg">
<path d="M15.3401 2.61392C13.6476 0.929306 11.396 0.000961305 8.99959 0C6.60859 0 4.3534 0.927521 2.6497 2.61172C0.942984 4.29881 0.00219938 6.54085 0 8.91664V8.92104C0.000274922 10.359 0.378431 11.8096 1.09625 13.1337L0.0246056 18L4.95163 16.8804C6.1995 17.5086 7.59185 17.8399 8.99615 17.8404H8.99973C11.3903 17.8404 13.6455 16.9128 15.3495 15.2284C17.0577 13.54 17.9989 11.3008 18 8.92351C18.0007 6.56296 17.0562 4.32216 15.3401 2.61392ZM8.99959 16.4355H8.99643C7.73549 16.435 6.48611 16.1187 5.38353 15.5207L5.15054 15.3943L1.87428 16.1388L2.58592 12.9077L2.44873 12.6714C1.76665 11.4962 1.40623 10.199 1.40623 8.91953C1.40884 4.77809 4.81486 1.40488 8.99931 1.40488C11.0208 1.4057 12.9203 2.18861 14.3477 3.60915C15.7966 5.05165 16.5943 6.93883 16.5936 8.9231C16.592 13.0655 13.1853 16.4355 8.99959 16.4355Z" fill="black"/>
<path d="M6.55072 4.98738H6.1562C6.01888 4.98738 5.79592 5.03874 5.60732 5.24377C5.41859 5.44894 4.88675 5.94484 4.88675 6.95338C4.88675 7.96193 5.6245 8.93642 5.72732 9.07333C5.83028 9.21011 7.15142 11.3459 9.24386 12.1675C10.9829 12.8503 11.3368 12.7145 11.7142 12.6803C12.0916 12.6462 12.9322 12.1845 13.1038 11.7059C13.2753 11.2273 13.2753 10.817 13.2239 10.7313C13.1724 10.6459 13.035 10.5947 12.8293 10.4922C12.6233 10.3896 11.6144 9.88536 11.4256 9.81683C11.2369 9.74858 11.0997 9.71439 10.9624 9.91969C10.8251 10.1246 10.4208 10.5986 10.3007 10.7354C10.1807 10.8723 10.0605 10.8895 9.8546 10.7869C9.64868 10.6841 8.99244 10.4638 8.20602 9.76561C7.59391 9.2222 7.16915 8.52924 7.04901 8.32407C6.92901 8.11903 7.03623 8.00807 7.13946 7.90576C7.23197 7.81403 7.35693 7.68851 7.45988 7.56889C7.56271 7.44914 7.59198 7.36372 7.66072 7.22694C7.72931 7.09016 7.69494 6.97041 7.64353 6.86797C7.59198 6.76538 7.19692 5.75175 7.01382 5.34636C6.85959 5.00496 6.69739 4.99342 6.55072 4.98738Z" fill="black"/>
</svg>
