<svg width="46" height="46" viewBox="0 0 46 46" fill="none" xmlns="http://www.w3.org/2000/svg">
<circle cx="23" cy="23" r="23" fill="#2F80ED"/>
<path d="M27.4906 31.1006C27.35 31.1006 27.2103 31.059 27.0905 30.9777L22.5646 27.9077L20.1371 29.6544C19.9467 29.7913 19.7014 29.8258 19.4803 29.7467C19.2595 29.6675 19.0918 29.4846 19.032 29.2578L17.8131 24.6387L13.458 22.9735C13.1838 22.8686 13.002 22.6063 13 22.3127C12.998 22.0192 13.1762 21.7544 13.4491 21.6458L30.0088 15.0566C30.084 15.0247 30.1635 15.0062 30.2437 15.0013C30.2724 14.9996 30.3011 14.9996 30.3297 15.0012C30.4958 15.0111 30.6589 15.0787 30.7862 15.2036C30.7994 15.2165 30.812 15.2297 30.8238 15.2435C30.9293 15.3639 30.9872 15.5108 30.9982 15.6604C31.0008 15.698 31.0006 15.7361 30.9973 15.7742C30.995 15.8014 30.9911 15.8285 30.9856 15.8553L28.1904 30.5214C28.1455 30.757 27.9851 30.9543 27.7636 31.0461C27.6757 31.0826 27.5829 31.1006 27.4906 31.1006ZM22.962 26.4553L26.9935 29.1899L29.1685 17.7781L21.3131 25.3369L22.943 26.4425C22.9495 26.4466 22.9558 26.451 22.962 26.4553ZM19.6059 25.8472L20.1457 27.8926L21.3087 27.0557L19.7858 26.0227C19.715 25.9748 19.6544 25.9152 19.6059 25.8472ZM15.673 22.2946L18.6634 23.4379C18.8776 23.5198 19.0393 23.6999 19.0978 23.9217L19.4771 25.3589C19.4944 25.1931 19.5696 25.0372 19.6917 24.9196L27.1767 17.7173L15.673 22.2946Z" fill="white"/>
</svg>
