<svg width="46" height="46" viewBox="0 0 46 46" fill="none" xmlns="http://www.w3.org/2000/svg">
<circle cx="23" cy="23" r="23" fill="#5FBC74"/>
<path d="M29.3401 16.6139C27.6476 14.9293 25.396 14.001 22.9996 14C20.6086 14 18.3534 14.9275 16.6497 16.6117C14.943 18.2988 14.0022 20.5408 14 22.9166V22.921C14.0003 24.359 14.3784 25.8096 15.0963 27.1337L14.0246 32L18.9516 30.8804C20.1995 31.5086 21.5918 31.8399 22.9962 31.8404H22.9997C25.3903 31.8404 27.6455 30.9128 29.3495 29.2284C31.0577 27.54 31.9989 25.3008 32 22.9235C32.0007 20.563 31.0562 18.3222 29.3401 16.6139ZM22.9996 30.4355H22.9964C21.7355 30.435 20.4861 30.1187 19.3835 29.5207L19.1505 29.3943L15.8743 30.1388L16.5859 26.9077L16.4487 26.6714C15.7667 25.4962 15.4062 24.199 15.4062 22.9195C15.4088 18.7781 18.8149 15.4049 22.9993 15.4049C25.0208 15.4057 26.9203 16.1886 28.3477 17.6091C29.7966 19.0517 30.5943 20.9388 30.5936 22.9231C30.592 27.0655 27.1853 30.4355 22.9996 30.4355Z" fill="white"/>
<path d="M20.5507 18.9874H20.1562C20.0189 18.9874 19.7959 19.0387 19.6073 19.2438C19.4186 19.4489 18.8867 19.9448 18.8867 20.9534C18.8867 21.9619 19.6245 22.9364 19.7273 23.0733C19.8303 23.2101 21.1514 25.3459 23.2439 26.1675C24.9829 26.8503 25.3368 26.7145 25.7142 26.6803C26.0916 26.6462 26.9322 26.1845 27.1038 25.7059C27.2753 25.2273 27.2753 24.817 27.2239 24.7313C27.1724 24.6459 27.035 24.5947 26.8293 24.4922C26.6233 24.3896 25.6144 23.8854 25.4256 23.8168C25.2369 23.7486 25.0997 23.7144 24.9624 23.9197C24.8251 24.1246 24.4208 24.5986 24.3007 24.7354C24.1807 24.8723 24.0605 24.8895 23.8546 24.7869C23.6487 24.6841 22.9924 24.4638 22.206 23.7656C21.5939 23.2222 21.1692 22.5292 21.049 22.3241C20.929 22.119 21.0362 22.0081 21.1395 21.9058C21.232 21.814 21.3569 21.6885 21.4599 21.5689C21.5627 21.4491 21.592 21.3637 21.6607 21.2269C21.7293 21.0902 21.6949 20.9704 21.6435 20.868C21.592 20.7654 21.1969 19.7518 21.0138 19.3464C20.8596 19.005 20.6974 18.9934 20.5507 18.9874Z" fill="white"/>
</svg>
